# xmcd
#
# Track frame offsets:
#	150
#	16544
#	29123
#	45170
#	63355
#	81561
#	99800
#	118709
#	135495
#	153161
#
# Disc length: 2224 seconds
#
# Revision: 1
# Processed by: cddbd v1.5.2PL0 Copyright (c) Steve Scherf et al.
# Submitted via: audiograbber 1.83.01
#
DISCID=6f08ae0a
DTITLE=Tobi Gmür - world famous in my home town
DYEAR=2012
DGENRE=Blues
TTITLE0=standing up on your shoulders
TTITLE1=we're on a mission
TTITLE2=your aim is true
TTITLE3=nothing to bring home but love
TTITLE4=head
TTITLE5=we've got speed
TTITLE6=go and get me love
TTITLE7=i'm in the middle
TTITLE8=egos elbows and cowards
TTITLE9=high hopes
EXTD=
EXTT0=
EXTT1=
EXTT2=
EXTT3=
EXTT4=
EXTT5=
EXTT6=
EXTT7=
EXTT8=
EXTT9=
PLAYORDER=
